PathFileType	4	(X/Y/Z)	S:\OneDrive - The University of Tokyo\ìåëÂéˆã∆\ÉoÉCÉÅÉJ\ë™íË\hirabayashi_2\Trimmed\Trimmed_BarL20kg1.trc
DataRate	CameraRate	NumFrames	NumMarkers	Units	OrigDataRate	OrigDataStartFrame	OrigNumFrames
200.00	200.00	       9	12	mm	200.00	230	       306
Frame#	Time	BarR0			BarR50			BarR100			BarR130			BarR180			BarR230			BarL0			BarL50			BarL100			BarL130			BarL180			BarL230			
		X1	Y1	Z1	X2	Y2	Z2	X3	Y3	Z3	X4	Y4	Z4	X5	Y5	Z5	X6	Y6	Z6	X7	Y7	Z7	X8	Y8	Z8	X9	Y9	Z9	X10	Y10	Z10	X11	Y11	Z11	X12	Y12	Z12	

230	1.145	-575.94495	2755.40674	1664.48462	-604.80756	2306.22412	1662.41113	-637.27112	1851.87305	1662.06653	-660.68677	1349.38049	1662.45898	-690.04242	902.66907	1662.67456	-713.73755	454.67670	1664.10767	-1113.54944	2807.73926	1664.60681	-1140.81531	2356.09839	1663.20874	-1171.41724	1905.91150	1660.99744	-1198.83936	1404.13562	1661.36816	-1227.44580	952.67773	1663.56030	-1244.67200	506.76852	1667.53418	
231	1.150	-575.95062	2755.42603	1664.47034	-604.82275	2306.25708	1662.40332	-637.28760	1851.90857	1662.06165	-660.68140	1349.39270	1662.46155	-690.04193	902.68787	1662.67993	-713.74017	454.67981	1664.11719	-1113.50647	2807.71777	1664.60315	-1140.77441	2356.11719	1663.20154	-1171.39856	1905.89111	1660.98999	-1198.83899	1404.14465	1661.37634	-1227.45374	952.70038	1663.56824	-1244.67200	506.73148	1667.53491	
232	1.155	-575.94043	2755.40723	1664.48230	-604.83386	2306.28223	1662.42468	-637.30347	1851.92102	1662.06702	-660.69922	1349.37927	1662.46460	-690.04346	902.68207	1662.66748	-713.73877	454.68301	1664.10986	-1113.49866	2807.72510	1664.62756	-1140.78687	2356.12915	1663.20496	-1171.43469	1905.89722	1660.99109	-1198.81335	1404.15942	1661.37024	-1227.45740	952.69476	1663.53711	-1244.68921	506.77939	1667.54541	
233	1.160	-575.93640	2755.42285	1664.47095	-604.80334	2306.24365	1662.40833	-637.25116	1851.87158	1662.06421	-660.70422	1349.38306	1662.47034	-690.04749	902.68311	1662.67590	-713.72815	454.68036	1664.10022	-1113.54309	2807.72534	1664.61365	-1140.81592	2356.10327	1663.21130	-1171.42908	1905.88940	1660.97168	-1198.81323	1404.15967	1661.36316	-1227.45874	952.68665	1663.57971	-1244.67432	506.77078	1667.52295	
234	1.165	-575.94519	2755.41895	1664.47253	-604.79913	2306.21924	1662.40710	-637.26422	1851.86829	1662.05127	-660.68256	1349.39636	1662.46436	-690.04700	902.70111	1662.67261	-713.72510	454.70407	1664.11023	-1113.55005	2807.71924	1664.60596	-1140.79150	2356.11987	1663.19189	-1171.43555	1905.89795	1660.99524	-1198.85168	1404.16394	1661.36035	-1227.45996	952.70605	1663.54260	-1244.67163	506.75656	1667.53809	
235	1.170	-575.94458	2755.42505	1664.48486	-604.80463	2306.25195	1662.41431	-637.27435	1851.85889	1662.06311	-660.71289	1349.36462	1662.46851	-690.05298	902.69440	1662.65479	-713.71997	454.68527	1664.10120	-1113.52686	2807.73315	1664.60986	-1140.82068	2356.10425	1663.21289	-1171.41919	1905.90271	1660.97400	-1198.80579	1404.17493	1661.37366	-1227.45361	952.70624	1663.55835	-1244.67456	506.74698	1667.53638	
236	1.175	-575.94788	2755.41431	1664.48914	-604.80408	2306.25220	1662.39856	-637.25537	1851.86206	1662.06848	-660.68561	1349.39221	1662.44836	-690.06464	902.68903	1662.66797	-713.74567	454.68903	1664.10938	-1113.55286	2807.72144	1664.60510	-1140.78601	2356.10254	1663.21204	-1171.43677	1905.90393	1660.98108	-1198.81982	1404.14966	1661.36780	-1227.47266	952.68207	1663.55835	-1244.68420	506.75549	1667.52356	
237	1.180	-575.93689	2755.39990	1664.47913	-604.79437	2306.24634	1662.40881	-637.26752	1851.85400	1662.07813	-660.70935	1349.39063	1662.45093	-690.04034	902.68909	1662.68140	-713.73969	454.68457	1664.10620	-1113.56274	2807.73462	1664.59534	-1140.79675	2356.11963	1663.20496	-1171.42542	1905.89075	1660.97192	-1198.83777	1404.13342	1661.37024	-1227.45251	952.69550	1663.56140	-1244.67004	506.75574	1667.52649	
238	1.185	-575.94922	2755.40332	1664.47485	-604.83539	2306.24731	1662.41895	-637.26941	1851.88025	1662.05444	-660.69916	1349.37622	1662.46277	-690.07458	902.69568	1662.65723	-713.73792	454.66772	1664.10181	-1113.59973	2807.73291	1664.59717	-1140.80090	2356.10815	1663.20715	-1171.42981	1905.92590	1660.98596	-1198.83386	1404.16626	1661.37158	-1227.44446	952.69891	1663.56091	-1244.67822	506.74216	1667.53345	
